<?xml version="1.0" encoding="UTF-8" standalone="no"?>
<!-- Created with Inkscape (http://www.inkscape.org/) -->

<svg
   width="58.023827mm"
   height="18.679405mm"
   viewBox="0 0 58.023827 18.679405"
   version="1.1"
   id="svg1483"
   xmlns="http://www.w3.org/2000/svg"
   xmlns:svg="http://www.w3.org/2000/svg">
  <defs
     id="defs1480" />
  <g
     id="layer1"
     transform="translate(-40.073622,-90.90203)">
    <g
       id="g1279"
       transform="matrix(0.35277776,0,0,-0.35277778,98.0784,90.90203)">
      <path
         d="m 0,0 h -164.423 v -30.024 h 6.853 v 17.786 h 1.795 16.317 v -24.149 h 7.506 v 7.995 h 8.159 v 16.154 h 16.806 v -23.986 h 7.507 v 7.669 h 8.321 v 11.912 h -3.752 v 4.405 h 20.395 v -24.149 h 7.833 v 7.669 h 7.833 v 11.911 h -3.754 v 4.569 h 22.681 V -24.149 H -42.37 V -36.55 h 8.158 v 7.995 h 7.833 v 11.912 h -3.59 v 4.405 H -7.452 V -24.639 H -9.736 V -36.55 h 7.996 1.794 z"
         style="fill:#000000;fill-opacity:1;fill-rule:nonzero;stroke:none"
         id="path1281" />
    </g>
    <g
       id="g1283"
       transform="matrix(0.35277776,0,0,-0.35277778,49.5261,105.95488)">
      <path
         d="M 0,0 H -4.079 V -10.28 H 4.079 V -1.829 0 4.045 H 0 Z"
         style="fill:#000000;fill-opacity:1;fill-rule:nonzero;stroke:none"
         id="path1285" />
    </g>
    <g
       id="g1287"
       transform="matrix(0.35277776,0,0,-0.35277778,60.9524,105.95488)">
      <path
         d="M 0,0 H -4.079 V -10.28 H 4.079 V -1.829 0 4.045 H 0 Z"
         style="fill:#000000;fill-opacity:1;fill-rule:nonzero;stroke:none"
         id="path1289" />
    </g>
    <g
       id="g1291"
       transform="matrix(0.35277776,0,0,-0.35277778,72.4651,105.95488)">
      <path
         d="M 0,0 H -4.079 V -10.28 H 4.079 V -1.829 0 4.045 H 0 Z"
         style="fill:#000000;fill-opacity:1;fill-rule:nonzero;stroke:none"
         id="path1293" />
    </g>
    <g
       id="g1295"
       transform="matrix(0.35277776,0,0,-0.35277778,83.8339,105.95488)">
      <path
         d="M 0,0 H -4.079 V -10.28 H 4.079 V -1.829 0 4.045 H 0 Z"
         style="fill:#000000;fill-opacity:1;fill-rule:nonzero;stroke:none"
         id="path1297" />
    </g>
    <g
       id="g1299"
       transform="matrix(0.35277776,0,0,-0.35277778,95.2027,105.95488)">
      <path
         d="M 0,0 H -4.079 V -10.28 H 4.079 V -1.829 0 4.045 H 0 Z"
         style="fill:#000000;fill-opacity:1;fill-rule:nonzero;stroke:none"
         id="path1301" />
    </g>
  </g>
</svg>
