<?xml version="1.0" encoding="UTF-8" standalone="no"?>
<!-- Created with Inkscape (http://www.inkscape.org/) -->

<svg
   width="24.234068mm"
   height="28.033485mm"
   viewBox="0 0 24.234068 28.033485"
   version="1.1"
   id="svg1919"
   xmlns="http://www.w3.org/2000/svg"
   xmlns:svg="http://www.w3.org/2000/svg">
  <defs
     id="defs1916" />
  <g
     id="layer1"
     transform="translate(-72.207912,-77.758624)">
    <g
       id="g1445"
       transform="matrix(0.35277776,0,0,-0.35277778,94.1394,105.79211)">
      <path
         d="m 0,0 h -7.669 v 22.518 h -1.958 v 4.079 h -4.243 v 22.191 h -5.711 v 7.996 h -6.037 v 5.548 h -3.916 V 37.04 H -40.14 v -3.59 h -4.895 v 5.059 h -4.08 v 4.895 h -7.179 v -3.101 h -5.874 v 22.355 h 4.242 v 4.079 h 4.895 v 4.569 h -3.916 v 3.753 h 8.648 v 4.406 h 3.753 V 57.926 h 12.238 v 14.522 h 15.665 V 68.206 H 0 v 8.811 H 6.201 V 64.942 H 0.49 V 58.905 H 3.427 V 49.767 H -0.979 V 44.056 H 4.079 V 32.145 H 6.527 V 27.413 H 0.122 Z"
         style="fill:#000000;fill-opacity:1;fill-rule:nonzero;stroke:none"
         id="path1447" />
    </g>
  </g>
</svg>
