<?xml version="1.0" encoding="UTF-8" standalone="no"?>
<!-- Created with Inkscape (http://www.inkscape.org/) -->

<svg
   width="62.070541mm"
   height="27.551945mm"
   viewBox="0 0 62.070541 27.551945"
   version="1.1"
   id="svg1430"
   xmlns="http://www.w3.org/2000/svg"
   xmlns:svg="http://www.w3.org/2000/svg">
  <defs
     id="defs1427" />
  <g
     id="layer1"
     transform="translate(-2.4915587,-69.194381)">
    <g
       id="g1307"
       transform="matrix(0.35277776,0,0,-0.35277778,64.5621,69.194381)">
      <path
         d="m 0,0 v -12.673 h -2.947 v 7.958 h -18.862 v -4.716 h -6.189 l -10e-4,-4.421 h -8.252 v -6.189 h -5.599 v -10.61 h 8.841 v -6.484 h 3.832 l -0.001,-14.441 h -3.242 v -5.305 h -5.01 v 4.421 h -2.947 v -5.305 h -8.252 v 3.537 h 3.242 v 2.947 4.126 h -4.716 v 13.852 13.262 h -3.536 v 6.926 h -2.211 v 7.663 h -7.073 v 2.505 h -9.283 v -2.21 h -5.011 v -30.062 h -6.926 v -17.094 h 7.368 v -7.81 h -19.009 v 10.905 h 5.747 v 3.832 h -5.6 v 23.135 h -4.126 v 5.6 h -3.536 v 10.315 h -4.863 v -3.537 l -24.02,10e-4 v 2.652 h -5.158 v -3.242 h -12.231 v 3.095 h -9.136 v -11.347 h 3.389 v -15.915 -12.526 h -2.799 l -0.001,-14.293 34.777,-10e-4 v -12.525 h -40.376 V -78.1 h -11.642 v 13.115 h 6.484 v 3.684 h 4.274 v 52.755 h -11.347 v 8.326 z"
         style="fill:#000000;fill-opacity:1;fill-rule:nonzero;stroke:none"
         id="path1309" />
    </g>
  </g>
</svg>
